<svg width="256" height="256" viewBox="0 0 256 256" fill="none" xmlns="http://www.w3.org/2000/svg">
  <defs>
    <linearGradient id="selectGrad" x1="48" y1="48" x2="208" y2="208" gradientUnits="userSpaceOnUse">
      <stop stop-color="#1D4ED8" />
      <stop offset="1" stop-color="#0EA5E9" />
    </linearGradient>
  </defs>
  <rect width="256" height="256" rx="128" fill="#F8FAFC" />
  <path
    d="M171.344 86.32L147.828 101.37C141.42 91.2192 131.887 85.8438 119.531 85.8438C111.918 85.8438 105.953 87.3455 101.641 90.3488C97.3279 93.3519 95.1719 97.3975 95.1719 102.484C95.1719 106.477 96.7525 109.876 99.9139 112.68C103.127 115.431 108.565 118.037 116.227 120.497L132.328 125.814C145.528 130.116 155.375 136.01 161.867 143.494C168.409 150.925 171.68 159.982 171.68 170.665C171.68 183.008 167.109 192.819 157.969 200.097C148.879 207.374 136.875 211.013 121.953 211.013C108.092 211.013 96.4727 207.891 87.0938 201.648C77.7657 195.353 71.8514 186.787 69.3516 175.949L97.707 167.865C99.0749 174.539 102.372 179.652 107.602 183.205C112.882 186.706 119.344 188.457 126.984 188.457C133.997 188.457 139.698 186.89 144.086 183.754C148.523 180.619 150.742 176.472 150.742 171.313C150.742 167.319 149.188 163.894 146.078 161.038C143.019 158.181 137.826 155.589 130.5 153.264L114.961 148.362C101.559 144.049 91.4733 138.261 84.7031 131C77.9331 123.739 74.547 114.867 74.5469 104.383C74.5469 92.7047 79.0663 83.3283 88.1055 76.2539C97.1946 69.1797 108.793 65.6426 122.898 65.6426C136.144 65.6426 146.828 68.4735 154.953 74.1348C163.127 79.7959 168.59 83.8576 171.344 86.32Z"
    fill="url(#selectGrad)"
  />
</svg>
